<?xml version="1.0" standalone="no"?>
<!DOCTYPE svg PUBLIC "-//W3C//DTD SVG 20010904//EN"
 "http://www.w3.org/TR/2001/REC-SVG-20010904/DTD/svg10.dtd">
<svg version="1.0" xmlns="http://www.w3.org/2000/svg"
 width="602.000000pt" height="602.000000pt" viewBox="0 0 602.000000 602.000000"
 preserveAspectRatio="xMidYMid meet">
<metadata>
Created by potrace 1.14, written by Peter Selinger 2001-2017
</metadata>
<g transform="translate(0.000000,602.000000) scale(0.100000,-0.100000)"
fill="#000000" stroke="none">
<path d="M3008 6015 c-2 -1 -43 -5 -93 -9 -122 -9 -152 -14 -280 -46 -664
-167 -1167 -754 -1222 -1427 -12 -139 -6 -336 12 -403 2 -8 6 -33 10 -54 14
-100 81 -300 139 -416 230 -463 669 -794 1176 -885 111 -20 377 -28 470 -14
137 19 172 26 240 45 776 216 1279 950 1197 1747 -29 281 -133 552 -303 788
-107 148 -296 324 -459 426 -212 134 -487 222 -739 239 -50 3 -103 7 -118 9
-15 1 -29 1 -30 0z m211 -146 c210 -29 413 -98 572 -195 l59 -35 -3 -360 c-1
-197 -4 -359 -7 -359 -3 0 -49 35 -101 78 -53 42 -115 93 -139 112 -24 19 -57
47 -74 61 -242 203 -480 388 -490 381 -6 -5 -36 -28 -67 -53 -31 -24 -73 -57
-94 -74 -21 -16 -169 -134 -329 -261 -160 -128 -292 -231 -294 -229 -2 2 -3
124 -2 272 1 147 1 306 1 353 -1 47 2 90 7 97 4 6 50 33 103 60 143 74 337
135 476 149 32 4 59 8 61 9 8 7 263 2 321 -6z m-1098 -341 c0 -18 -1 -123 -2
-233 -1 -110 -1 -237 -1 -283 l-1 -82 -56 47 c-206 174 -266 226 -269 233 -8
21 144 191 303 340 18 16 25 10 26 -22z m1980 -98 c68 -68 200 -232 199 -248
-1 -4 -33 -32 -72 -62 -39 -30 -76 -60 -82 -65 -24 -22 -165 -135 -169 -135
-3 0 -1 543 3 614 0 12 30 -14 121 -104z m-916 -146 c72 -58 139 -113 150
-122 11 -9 45 -37 75 -62 56 -46 78 -65 116 -97 12 -10 88 -71 168 -137 102
-83 146 -125 147 -140 0 -11 0 -104 -1 -206 -1 -102 -3 -281 -3 -397 -1 -117
-2 -213 -3 -213 -1 0 -180 146 -399 324 l-398 323 -395 -314 c-217 -173 -396
-312 -399 -309 -3 3 -5 97 -3 208 1 112 3 296 4 410 1 114 4 208 6 211 164
129 333 263 533 424 139 111 257 202 262 202 6 1 69 -47 140 -105z m-1404
-240 c30 -26 76 -65 103 -88 27 -22 54 -46 60 -51 6 -6 46 -39 89 -75 42 -35
78 -69 78 -75 3 -22 -3 -820 -6 -823 -3 -3 -31 19 -69 53 -6 6 -54 46 -106 90
-52 43 -97 81 -100 85 -3 3 -69 59 -147 124 -79 65 -144 126 -144 135 -2 22
-2 17 5 103 4 43 8 83 11 90 2 7 7 31 10 53 7 52 42 176 67 240 32 82 81 185
88 185 3 0 31 -21 61 -46z m2624 -56 c18 -40 47 -118 64 -173 45 -151 79 -399
59 -437 -7 -15 -518 -439 -553 -460 -7 -5 -10 67 -8 225 1 128 3 315 3 417 l1
185 76 60 c42 33 81 65 87 70 23 22 228 185 233 185 2 0 19 -33 38 -72z
m-1250 -689 c61 -50 128 -106 150 -124 22 -18 96 -80 165 -137 69 -56 175
-143 235 -192 61 -49 114 -93 119 -97 4 -4 8 -54 8 -111 0 -56 -1 -198 -1
-314 l-1 -212 -57 -34 c-97 -57 -302 -140 -374 -150 l-24 -3 0 245 c0 243 0
245 -26 300 -33 69 -97 133 -169 168 -49 24 -67 27 -155 27 -89 0 -106 -3
-157 -28 -73 -36 -133 -97 -167 -167 -25 -54 -26 -61 -29 -295 -2 -132 -5
-242 -7 -244 -15 -14 -336 120 -405 169 l-29 20 4 313 c1 171 3 315 4 318 1 4
27 26 59 50 31 24 59 46 62 49 3 3 25 21 50 40 25 19 47 37 50 40 3 3 92 75
199 159 107 85 201 160 210 167 78 64 167 133 171 133 3 0 55 -40 115 -90z
m-1579 -96 c11 -10 76 -65 144 -123 69 -58 136 -114 150 -126 14 -12 73 -62
131 -111 l105 -90 -2 -219 c-3 -316 -3 -314 -13 -314 -5 0 -54 44 -108 98
-232 233 -370 500 -427 830 -7 39 -10 72 -6 72 3 0 15 -8 26 -17z m2939 -55
c-10 -70 -14 -90 -30 -148 -9 -30 -18 -62 -20 -70 -31 -124 -144 -335 -253
-475 -63 -80 -232 -247 -245 -242 -8 2 -9 111 -3 438 l1 86 71 59 c39 33 90
75 114 94 23 19 115 94 204 167 88 73 162 132 164 133 2 0 0 -19 -3 -42z
m-1366 -641 c22 -15 53 -46 68 -69 l28 -42 0 -248 0 -247 -30 -7 c-72 -16
-394 -8 -413 11 -4 3 -2 315 2 426 3 76 27 123 81 165 46 35 79 44 156 41 53
-2 75 -8 108 -30z"/>
<path d="M515 1818 c2 -16 -2 -31 -9 -32 -93 -25 -127 -40 -161 -73 -63 -62
-84 -139 -59 -222 24 -82 120 -160 197 -161 24 0 27 -4 27 -35 l0 -35 50 0 50
0 0 33 c0 31 3 34 30 35 72 2 166 69 196 141 19 45 18 134 -2 174 -35 69 -89
110 -174 132 -40 10 -44 14 -45 41 0 28 -2 29 -51 31 -51 1 -51 1 -49 -29z
m-4 -137 c3 -33 -2 -266 -6 -269 -8 -9 -80 34 -97 58 -26 36 -31 108 -10 150
28 56 110 100 113 61z m188 -20 c33 -31 55 -97 45 -138 -10 -40 -41 -81 -74
-98 -56 -29 -56 -28 -54 128 1 78 2 143 3 143 8 8 58 -14 80 -35z"/>
<path d="M1209 1773 c-4 -267 -5 -500 -2 -509 5 -15 88 -11 108 6 16 13 93
128 195 290 29 47 56 88 60 93 4 4 5 -85 3 -198 l-4 -205 56 0 55 0 1 128 c0
70 1 196 2 280 1 95 -2 152 -8 153 -50 7 -111 -6 -118 -24 -3 -7 -54 -87 -113
-178 -60 -90 -114 -175 -120 -189 -8 -19 -11 23 -10 184 l1 210 -52 3 -53 4
-1 -48z"/>
<path d="M2078 1798 c-2 -7 -4 -134 -3 -282 l0 -269 50 0 50 0 3 122 3 121
129 0 129 0 3 -122 3 -123 50 0 50 0 3 281 2 281 -52 -1 -53 -2 -1 -106 c-1
-59 -4 -113 -7 -121 -4 -10 -22 -13 -74 -11 -37 1 -94 3 -125 3 l-56 1 0 93
c0 162 5 147 -51 147 -30 0 -50 -5 -53 -12z"/>
<path d="M3101 1794 c-150 -44 -226 -212 -175 -385 22 -74 89 -141 163 -163
101 -30 196 -15 258 39 l38 34 -27 27 -27 28 -39 -22 c-106 -59 -213 -25 -257
82 -32 76 -11 192 43 239 51 46 133 52 204 16 48 -25 50 -24 77 12 22 29 22
31 4 45 -64 52 -178 73 -262 48z"/>
<path d="M3728 1771 c-2 -14 -3 -141 -3 -281 l0 -255 50 0 50 0 3 121 3 121
32 1 c18 1 40 -1 49 -4 10 -3 50 -57 89 -121 40 -63 78 -117 84 -120 7 -2 35
-3 63 -1 l50 3 -79 130 c-44 72 -89 138 -100 147 l-20 17 23 24 c13 13 51 63
84 111 32 48 65 96 73 107 13 18 11 19 -42 19 -64 0 -69 -4 -129 -94 -83 -124
-96 -136 -138 -136 l-39 0 2 115 c1 71 -2 115 -8 116 -5 1 -29 2 -52 3 -37 2
-42 0 -45 -23z"/>
<path d="M4681 1768 c-33 -85 -205 -506 -212 -520 -10 -19 -10 -19 44 -22 49
-3 61 7 88 73 26 66 18 63 124 63 19 0 57 -1 83 -1 l48 -1 18 -55 c22 -71 36
-83 91 -83 42 0 45 1 39 21 -13 40 -194 512 -202 527 -6 9 -28 15 -60 17 -47
3 -53 1 -61 -19z m137 -323 c-4 -5 -81 -8 -134 -6 l-32 1 38 98 c20 53 40 106
44 117 6 15 17 -7 48 -93 22 -62 38 -115 36 -117z"/>
<path d="M5428 1752 c-58 -31 -88 -76 -88 -135 0 -56 26 -104 72 -131 37 -22
38 -24 18 -37 -19 -13 -161 -221 -155 -227 6 -6 82 -5 103 2 15 5 48 46 87
106 69 106 88 123 138 118 l32 -3 0 -112 c0 -62 2 -113 5 -114 35 -7 93 -4 96
6 3 7 6 134 7 283 l3 270 -134 0 c-125 0 -136 -1 -184 -26z m208 -141 l2 -82
-75 4 c-83 4 -110 21 -116 73 -8 61 36 90 131 89 l57 -1 1 -83z"/>
<path d="M643 603 c-8 -3 -6 -14 7 -36 119 -209 189 -336 191 -347 2 -8 -2
-29 -10 -47 -13 -33 -38 -48 -86 -52 -22 -2 -20 -68 3 -79 25 -13 90 -6 119
13 17 12 62 93 143 259 65 134 121 252 124 264 7 21 4 22 -43 22 -48 0 -52 -2
-76 -40 -14 -22 -25 -42 -25 -44 0 -2 -20 -47 -45 -100 l-45 -95 -72 139 c-45
88 -77 140 -87 141 -9 0 -32 2 -51 3 -19 2 -40 1 -47 -1z"/>
<path d="M1629 585 c-2 -13 -5 -51 -13 -159 -4 -49 -8 -92 -10 -95 -2 -3 -7
-28 -11 -56 -7 -57 -34 -124 -58 -143 -8 -7 -28 -14 -44 -15 -25 -2 -28 -7
-31 -39 -3 -33 0 -38 23 -44 42 -10 105 2 130 26 49 46 88 170 101 325 4 44 8
87 10 95 1 8 3 18 3 23 1 4 34 7 75 7 l74 0 -3 -240 -2 -240 53 0 54 0 0 33
c1 17 2 143 3 280 l3 247 -46 1 c-197 6 -310 3 -311 -6z"/>
<path d="M2565 585 c-87 -23 -147 -72 -187 -155 -33 -69 -31 -187 5 -258 70
-137 229 -192 378 -129 71 29 140 114 154 189 27 138 -31 275 -139 330 -49 25
-156 37 -211 23z m173 -112 c73 -54 96 -184 49 -274 -49 -95 -187 -119 -265
-46 -41 38 -56 77 -56 152 0 97 26 145 99 181 42 20 137 14 173 -13z"/>
<path d="M3287 573 c-6 -13 -1 -216 7 -249 8 -34 46 -74 88 -92 29 -12 179
-10 211 3 17 7 18 1 17 -96 -1 -57 -1 -109 -1 -115 1 -6 23 -10 53 -10 l52 1
1 280 0 280 -52 1 -52 2 -3 -132 -3 -131 -57 -9 c-77 -12 -131 3 -146 42 -6
15 -11 65 -11 112 1 130 6 120 -50 120 -28 0 -52 -3 -54 -7z"/>
<path d="M4084 566 c-6 -15 -12 -528 -6 -544 2 -7 23 -12 53 -12 47 0 49 1 50
28 0 15 1 70 2 122 l2 95 35 1 c19 0 43 -3 52 -8 9 -4 48 -58 85 -118 38 -61
77 -113 88 -117 21 -7 94 -7 101 -1 7 7 -158 269 -177 281 -18 11 -17 13 5 37
13 14 56 72 96 130 l71 105 -51 3 c-29 2 -58 -2 -66 -9 -8 -6 -44 -56 -81
-110 -66 -99 -92 -119 -139 -111 -20 3 -21 8 -18 117 3 112 3 115 -19 116 -12
1 -35 2 -50 3 -16 2 -31 -2 -33 -8z"/>
<path d="M5040 555 c-4 -5 -31 -68 -60 -140 -115 -285 -160 -400 -160 -406 0
-12 103 -1 111 12 5 8 17 38 26 67 l17 52 117 0 118 0 17 -55 c23 -72 40 -87
96 -83 l44 3 -69 180 c-38 99 -80 209 -93 245 -55 144 -49 137 -106 136 -27
-1 -53 -5 -58 -11z m99 -224 c23 -63 41 -115 41 -115 0 -3 -163 4 -166 7 -2 2
15 54 38 115 23 62 42 111 44 109 1 -1 21 -54 43 -116z"/>
</g>
</svg>
